<svg id="svg" xmlns="http://www.w3.org/2000/svg" xmlns:xlink="http://www.w3.org/1999/xlink" width="400" height="200" viewBox="0, 0, 400,200"><g id="svgg"><path id="path0" d="M161.200 72.574 L 161.200 84.348 159.097 82.244 C 153.376 76.524,142.197 77.710,136.582 84.633 L 134.934 86.666 132.924 84.427 C 126.576 77.358,111.647 76.627,104.057 83.013 L 102.800 84.071 102.800 82.284 C 102.800 79.737,100.228 78.806,93.184 78.802 C 86.314 78.799,82.096 80.325,77.889 84.338 C 75.713 86.414,75.502 86.526,75.104 85.814 C 70.711 77.965,56.295 76.196,49.200 82.635 C 47.539 84.142,47.172 83.999,46.554 81.600 C 44.438 73.393,38.378 67.616,29.247 65.101 C 26.524 64.350,24.850 64.244,13.500 64.097 L 0.800 63.932 0.800 91.628 L 0.800 119.324 11.300 119.091 C 27.823 118.724,33.805 116.845,40.466 109.932 L 42.744 107.567 44.028 110.259 C 48.325 119.263,61.246 122.532,72.833 117.548 L 74.800 116.701 74.800 114.175 L 74.800 111.648 76.894 113.862 C 80.854 118.049,84.817 119.601,91.536 119.598 C 97.946 119.594,102.800 118.023,102.800 115.951 L 102.800 114.801 104.702 116.168 C 112.393 121.693,125.600 120.730,132.109 114.169 L 134.302 111.959 135.714 113.880 C 141.119 121.232,152.922 121.794,159.137 114.993 L 161.200 112.736 161.200 115.968 L 161.200 119.200 165.800 119.200 L 170.400 119.200 170.400 115.540 L 170.400 111.880 171.530 113.440 C 176.149 119.814,188.707 121.732,198.433 117.548 L 200.400 116.701 200.400 112.951 C 200.400 110.888,200.329 109.200,200.242 109.200 C 200.154 109.200,198.692 109.861,196.992 110.668 C 187.855 115.007,178.492 111.645,177.033 103.500 L 176.764 102.000 187.682 102.015 L 198.600 102.030 200.464 105.927 C 206.142 117.798,220.347 122.706,235.900 118.169 C 236.570 117.974,236.800 118.072,236.800 118.553 C 236.800 119.111,237.430 119.200,241.400 119.200 L 246.000 119.200 246.000 108.855 C 246.000 94.609,246.810 91.283,250.954 88.500 C 252.935 87.170,254.259 86.806,253.865 87.700 C 248.521 99.837,251.267 113.137,260.045 117.625 C 265.422 120.374,275.550 120.336,282.042 117.544 C 283.902 116.744,284.063 116.733,284.765 117.368 C 289.318 121.489,299.653 120.097,303.847 114.797 L 305.200 113.087 305.200 116.144 L 305.200 119.200 309.600 119.200 L 314.000 119.200 313.990 104.700 C 313.985 96.725,313.824 89.525,313.633 88.700 C 313.305 87.287,313.340 87.200,314.242 87.200 L 315.200 87.200 315.200 99.127 C 315.200 118.773,316.179 120.009,331.249 119.398 L 338.388 119.108 338.494 107.654 L 338.600 96.200 342.800 107.708 L 347.000 119.216 351.991 119.108 L 356.981 119.000 359.791 111.703 C 362.839 103.786,362.967 103.584,363.366 106.079 C 365.226 117.708,380.131 123.356,393.633 117.548 L 395.600 116.701 395.600 112.951 C 395.600 110.888,395.529 109.200,395.442 109.200 C 395.354 109.200,393.892 109.861,392.192 110.668 C 383.055 115.007,373.692 111.645,372.233 103.500 L 371.964 102.000 385.441 102.000 L 398.918 102.000 398.691 97.300 C 398.103 85.137,392.995 79.245,382.716 78.869 C 378.426 78.712,373.282 79.697,372.597 80.805 C 372.161 81.511,371.669 81.222,371.887 80.387 C 372.094 79.599,371.955 79.578,367.177 79.687 L 362.255 79.800 358.210 92.000 C 355.986 98.710,353.742 105.635,353.224 107.389 L 352.283 110.577 351.817 108.789 C 351.560 107.805,349.394 100.835,347.003 93.300 L 342.655 79.600 333.528 79.600 L 324.400 79.600 324.400 73.800 C 324.400 69.426,324.277 68.000,323.900 68.001 C 323.625 68.002,321.600 68.514,319.400 69.139 L 315.400 70.276 315.287 74.938 L 315.175 79.600 311.987 79.600 C 309.421 79.600,308.800 79.717,308.800 80.200 C 308.800 80.855,308.178 81.012,307.828 80.446 C 306.589 78.441,294.367 78.275,289.205 80.193 C 284.869 81.804,284.400 82.184,284.400 84.089 L 284.400 85.687 282.574 83.655 C 279.617 80.367,276.456 79.042,271.131 78.860 C 266.827 78.712,261.679 79.701,260.997 80.805 C 260.552 81.525,260.000 81.214,260.000 80.243 C 260.000 79.035,259.370 78.800,256.128 78.800 C 252.003 78.800,248.844 80.856,246.883 84.817 L 246.001 86.600 246.000 83.100 L 246.000 79.600 241.405 79.600 L 236.810 79.600 236.705 94.500 L 236.600 109.400 233.400 110.328 C 216.931 115.104,203.881 102.445,208.197 85.877 C 211.415 73.519,225.575 67.706,237.607 73.803 L 239.600 74.813 239.600 69.997 L 239.600 65.180 238.500 64.761 C 233.226 62.753,221.731 62.646,216.204 64.555 C 208.335 67.273,202.162 73.257,199.423 80.821 C 198.556 83.215,198.546 83.224,197.804 82.405 C 192.036 76.031,177.770 77.981,171.503 86.000 L 170.409 87.400 170.404 74.100 L 170.400 60.800 165.800 60.800 L 161.200 60.800 161.200 72.574 M330.749 61.873 C 327.578 63.842,327.643 68.968,330.860 70.631 C 336.659 73.630,342.315 67.035,337.808 62.528 C 336.249 60.969,332.732 60.643,330.749 61.873 M24.914 73.029 C 33.822 75.338,38.176 82.185,37.484 92.799 C 36.676 105.204,29.224 110.701,13.100 110.786 L 10.400 110.800 10.400 91.600 L 10.400 72.400 16.442 72.400 C 20.643 72.400,23.225 72.592,24.914 73.029 M65.026 86.994 C 67.030 88.168,68.800 91.304,68.800 93.679 L 68.800 95.200 60.000 95.200 C 55.160 95.200,51.200 95.117,51.200 95.015 C 51.200 88.853,59.742 83.897,65.026 86.994 M190.626 86.994 C 192.630 88.168,194.400 91.304,194.400 93.679 L 194.400 95.200 185.600 95.200 C 180.760 95.200,176.800 95.117,176.800 95.015 C 176.800 88.853,185.342 83.897,190.626 86.994 M274.226 86.994 C 276.230 88.168,278.000 91.304,278.000 93.679 L 278.000 95.200 269.200 95.200 C 264.360 95.200,260.400 95.117,260.400 95.015 C 260.400 88.853,268.942 83.897,274.226 86.994 M301.765 86.907 C 303.426 87.855,304.559 89.667,304.963 92.023 L 305.207 93.446 298.640 94.323 C 295.028 94.805,290.994 95.535,289.677 95.945 L 287.281 96.691 286.852 93.809 C 286.617 92.224,286.315 90.644,286.182 90.298 C 285.898 89.557,288.635 87.812,291.795 86.720 C 294.827 85.671,299.763 85.763,301.765 86.907 M385.826 86.994 C 387.830 88.168,389.600 91.304,389.600 93.679 L 389.600 95.200 380.800 95.200 C 375.960 95.200,372.000 95.117,372.000 95.015 C 372.000 88.853,380.542 83.897,385.826 86.994 M98.845 87.178 L 99.890 87.678 99.145 89.220 C 96.383 94.935,96.473 103.543,99.362 110.059 C 100.223 112.002,91.170 112.643,87.746 110.882 C 78.634 106.194,79.588 90.591,89.202 87.074 C 91.303 86.306,97.155 86.369,98.845 87.178 M121.742 86.950 C 130.307 90.529,130.428 107.822,121.913 111.379 C 112.317 115.387,103.760 105.097,107.371 93.891 C 109.298 87.911,116.137 84.608,121.742 86.950 M155.822 87.154 C 163.068 90.445,163.422 106.001,156.357 110.676 C 149.335 115.323,141.534 109.624,141.472 99.800 C 141.407 89.673,148.197 83.691,155.822 87.154 M329.200 99.600 L 329.200 112.000 328.254 112.000 C 324.982 112.000,324.405 109.796,324.402 97.300 L 324.400 87.200 326.800 87.200 L 329.200 87.200 329.200 99.600 M305.086 102.746 C 304.565 108.959,301.308 112.371,295.880 112.391 C 288.986 112.417,286.952 104.277,293.267 101.932 C 295.121 101.243,301.418 100.133,303.958 100.046 L 305.316 100.000 305.086 102.746 M72.000 102.916 C 72.000 103.810,72.873 107.504,73.415 108.901 C 73.946 110.272,69.006 112.106,64.234 112.309 C 56.779 112.627,52.546 109.714,51.433 103.500 L 51.164 102.000 61.582 102.000 L 72.000 102.000 72.000 102.916 M281.370 103.500 C 281.076 104.325,280.827 106.285,280.818 107.857 L 280.800 110.713 279.100 111.411 C 270.921 114.770,261.965 110.933,260.633 103.500 L 260.364 102.000 271.135 102.000 L 281.906 102.000 281.370 103.500 " stroke="none" fill="#000000" fill-rule="evenodd"></path></g></svg>