<?xml version="1.0" standalone="no"?>
<!DOCTYPE svg PUBLIC "-//W3C//DTD SVG 20010904//EN"
 "http://www.w3.org/TR/2001/REC-SVG-20010904/DTD/svg10.dtd">
<svg version="1.0" xmlns="http://www.w3.org/2000/svg"
 width="1000.000000pt" height="500.000000pt" viewBox="0 0 1000.000000 500.000000"
 preserveAspectRatio="xMidYMid meet">

<g transform="translate(0.000000,500.000000) scale(0.100000,-0.100000)"
fill="#000000" stroke="none">
<path d="M3920 3548 l0 -271 -28 39 c-16 21 -53 53 -83 69 -49 27 -62 30 -149
30 -81 0 -103 -4 -150 -26 -100 -47 -164 -120 -207 -234 -12 -33 -22 -50 -22
-39 -1 38 -70 161 -111 198 -76 69 -184 106 -305 106 -245 -1 -418 -138 -456
-364 -13 -78 -7 -187 15 -258 16 -54 13 -59 -64 -99 -36 -19 -61 -24 -125 -24
-70 0 -87 4 -134 30 -95 52 -133 128 -133 262 1 117 50 207 142 257 92 50 219
44 303 -16 l28 -20 -3 99 -3 98 -65 17 c-126 32 -280 17 -383 -40 -66 -35
-140 -111 -171 -174 -20 -40 -27 -47 -31 -32 -16 54 -71 147 -103 175 -20 18
-61 44 -92 58 -48 23 -68 26 -160 26 -99 0 -109 -2 -173 -33 -79 -39 -156
-113 -191 -183 l-24 -50 -7 58 c-21 209 -76 325 -197 415 -63 48 -116 72 -218
100 -64 18 -113 22 -343 26 l-267 4 0 -612 0 -612 247 5 c277 5 326 13 453 74
104 50 217 162 264 263 l33 72 12 -78 c23 -153 95 -259 217 -316 116 -54 333
-47 460 14 l44 22 0 78 0 78 -49 -26 c-103 -53 -213 -67 -309 -39 -90 27 -148
96 -166 198 l-7 37 275 0 275 0 6 -37 c32 -188 157 -322 333 -354 80 -16 208
-5 279 23 l58 23 3 89 3 89 28 -44 c34 -54 96 -111 150 -139 136 -69 329 -66
464 7 67 37 152 131 174 193 17 48 33 65 33 35 0 -39 46 -130 91 -179 69 -76
129 -101 244 -101 73 0 100 4 140 23 55 25 107 70 136 117 l19 30 0 -77 0 -78
100 0 100 0 0 645 0 645 -100 0 -100 0 0 -272z m-3355 8 c161 -50 244 -169
253 -366 5 -124 -7 -195 -49 -279 -74 -147 -207 -210 -446 -211 l-113 0 0 441
0 442 153 -6 c95 -3 171 -11 202 -21z m971 -321 c42 -32 73 -95 74 -147 l0
-38 -199 0 -199 0 7 33 c19 79 73 147 141 176 44 19 136 6 176 -24z m1398 13
c59 -18 121 -84 140 -149 20 -68 20 -200 0 -268 -31 -107 -131 -170 -248 -158
-93 9 -151 53 -194 145 -22 49 -24 63 -20 160 3 84 9 116 25 147 59 112 174
159 297 123z m854 -4 c47 -19 88 -58 113 -106 16 -31 19 -59 19 -160 0 -108
-3 -129 -24 -173 -55 -117 -173 -165 -282 -116 -104 47 -151 164 -133 330 12
115 69 199 154 229 45 16 111 14 153 -4z"/>
<path d="M8299 3777 c-20 -13 -37 -36 -43 -55 -38 -133 160 -200 220 -74 48
101 -80 195 -177 129z"/>
<path d="M5385 3755 c-225 -47 -411 -232 -463 -462 l-18 -77 -27 46 c-33 57
-75 93 -147 127 -48 23 -68 26 -160 26 -99 0 -109 -2 -173 -33 -180 -89 -270
-280 -239 -508 30 -224 159 -348 375 -361 106 -6 229 14 303 49 l44 22 0 78 0
78 -49 -26 c-103 -53 -213 -67 -309 -39 -90 27 -148 96 -166 198 l-7 37 288 0
288 -1 42 -88 c116 -244 366 -352 685 -296 47 8 106 24 132 34 l46 20 0 90 0
90 -61 -29 c-118 -56 -285 -64 -402 -20 -85 32 -165 110 -207 202 -30 65 -34
84 -38 181 -7 175 28 285 123 382 124 127 332 160 523 83 l62 -26 0 94 c0 56
-4 95 -11 100 -59 36 -316 53 -434 29z m-709 -520 c42 -32 73 -95 74 -147 l0
-38 -199 0 -199 0 7 33 c19 79 73 147 141 176 44 19 136 6 176 -24z"/>
<path d="M7955 3631 l-90 -27 -3 -102 -3 -102 -69 0 -69 0 -3 -77 -3 -78 -22
42 c-30 54 -78 90 -154 114 -109 34 -276 19 -395 -35 l-54 -25 0 -87 0 -86 27
17 c87 58 170 85 253 85 56 0 123 -30 146 -65 17 -26 36 -115 25 -115 -3 0
-78 -11 -166 -24 -167 -26 -229 -45 -282 -90 l-31 -27 -6 58 c-11 111 -28 178
-58 236 -37 69 -82 111 -158 146 -48 23 -68 26 -160 26 -119 0 -163 -15 -257
-86 l-53 -40 0 60 c0 52 -2 59 -22 65 -101 27 -223 -44 -267 -156 -7 -17 -10
-2 -10 60 l-1 82 -100 0 -100 0 0 -435 0 -435 100 0 100 0 0 248 c0 196 3 259
16 301 17 60 73 127 121 148 33 13 105 18 115 7 4 -3 -5 -31 -19 -61 -36 -84
-49 -192 -35 -299 30 -224 159 -348 375 -361 106 -6 229 14 303 49 l44 22 0
78 0 78 -49 -26 c-103 -53 -213 -67 -309 -39 -90 27 -148 96 -166 198 l-7 37
287 0 c268 0 286 -1 279 -17 -4 -10 -11 -43 -17 -75 -21 -118 29 -227 127
-277 42 -22 63 -26 140 -26 82 0 95 3 145 31 30 17 70 50 88 73 l32 43 0 -66
0 -66 101 0 101 0 -5 328 c-3 180 -8 339 -12 355 l-7 27 70 0 71 0 3 -287 c3
-272 4 -290 24 -328 25 -46 45 -66 93 -90 45 -23 167 -31 228 -15 26 6 96 11
155 10 l108 -1 2 371 3 371 135 -368 136 -368 109 0 109 0 133 345 c73 190
149 385 168 433 l34 88 -105 -3 -105 -3 -95 -285 c-52 -157 -103 -315 -113
-352 l-17 -67 -32 107 c-18 59 -68 217 -110 352 l-78 245 -292 3 -292 2 0 130
c0 72 -3 130 -7 129 -5 -1 -48 -13 -98 -28z m-1169 -396 c42 -32 73 -95 74
-147 l0 -38 -199 0 -199 0 7 33 c19 79 73 147 141 176 44 19 136 6 176 -24z
m1484 -265 l0 -269 -32 -17 c-45 -23 -113 -14 -147 20 l-26 26 -3 255 -3 255
106 0 105 0 0 -270z m-724 -82 c-13 -139 -78 -215 -192 -224 -46 -4 -67 -1
-94 14 -91 49 -89 181 3 228 17 10 81 25 142 35 164 25 149 31 141 -53z"/>
<path d="M9489 3407 c-212 -60 -335 -278 -301 -533 30 -224 159 -348 375 -361
106 -6 229 14 303 49 l44 22 0 78 0 78 -49 -26 c-103 -53 -213 -67 -309 -39
-90 27 -148 96 -166 198 l-7 37 302 0 301 0 -6 88 c-9 119 -23 177 -59 245
-58 111 -154 167 -296 173 -52 2 -104 -1 -132 -9z m217 -172 c42 -32 73 -95
74 -147 l0 -38 -199 0 -199 0 7 33 c19 79 73 147 141 176 44 19 136 6 176 -24z"/>
</g>
</svg>
