<?xml version="1.0" encoding="utf-8"?>
<!-- Generator: Adobe Illustrator 21.1.0, SVG Export Plug-In . SVG Version: 6.00 Build 0)  -->
<svg version="1.1" id="Layer_1" xmlns="http://www.w3.org/2000/svg" xmlns:xlink="http://www.w3.org/1999/xlink" x="0px" y="0px"
	 viewBox="0 0 1920 1080" style="enable-background:new 0 0 1920 1080;" xml:space="preserve">
<style type="text/css">
	.st0{stroke:#000000;stroke-miterlimit:10;}
</style>
<g>
	<path class="st0" d="M9.9,345.3V162.8h52.7c67.3,0,100.9,29.6,100.9,88.9c0,28.2-9.3,50.8-28,67.9s-43.7,25.6-75.1,25.6L9.9,345.3
		L9.9,345.3z M40,188.5v131.2h24.2c21.3,0,37.9-5.9,49.7-17.6s17.8-28.2,17.8-49.6c0-42.7-22.1-64-66.3-64H40z"/>
	<path class="st0" d="M303.8,288.1H215c0.3,12,4.1,21.3,11.1,27.9c7.1,6.5,16.8,9.8,29.2,9.8c13.9,0,26.7-4.2,38.3-12.5v23.8
		c-11.9,7.5-27.6,11.2-47.1,11.2c-19.2,0-34.2-5.9-45.1-17.8C190.5,318.7,185,302,185,280.6c0-20.3,6-36.8,18-49.6
		s26.9-19.2,44.7-19.2s31.6,5.7,41.4,17.2c9.8,11.5,14.6,27.4,14.6,47.7L303.8,288.1L303.8,288.1z M275.3,267.3
		c-0.1-10.6-2.6-18.9-7.5-24.7s-11.7-8.8-20.4-8.8c-8.5,0-15.7,3.1-21.6,9.3c-5.9,6.2-9.5,14.3-10.9,24.3h60.4V267.3z"/>
	<path class="st0" d="M425.2,339.3c-10.4,6-22.8,9-37,9c-19.3,0-35-6-46.8-18.1c-11.9-12.1-17.8-27.8-17.8-47
		c0-21.5,6.4-38.7,19.2-51.7c12.8-13,29.8-19.5,51.2-19.5c11.9,0,22.4,2.1,31.4,6.2v27.5c-9.1-6.8-18.7-10.2-29-10.2
		c-12.5,0-22.7,4.2-30.7,12.7s-12,19.5-12,33.1c0,13.5,3.8,24.1,11.3,31.9s17.6,11.7,30.2,11.7c10.6,0,20.6-3.8,30-11.3L425.2,339.3
		L425.2,339.3z"/>
	<path class="st0" d="M512.3,348.3c-20.1,0-36.2-6.1-48.2-18.3c-12-12.2-18-28.3-18-48.4c0-21.9,6.3-39,18.8-51.3
		s29.4-18.5,50.6-18.5c20.4,0,36.2,6,47.6,17.9c11.4,12,17.1,28.5,17.1,49.8c0,20.8-6.1,37.4-18.4,49.9
		C549.4,342.1,533,348.3,512.3,348.3z M513.7,235.5c-11.5,0-20.7,4-27.4,12.1c-6.7,8.1-10.1,19.2-10.1,33.3
		c0,13.7,3.4,24.4,10.2,32.3c6.8,7.8,15.9,11.8,27.2,11.8c11.6,0,20.6-3.9,26.8-11.6s9.4-18.7,9.4-33s-3.1-25.4-9.4-33.2
		C534.2,239.4,525.3,235.5,513.7,235.5z"/>
	<path class="st0" d="M728.6,345.3h-29.5v-22.1h-0.5c-9.5,16.8-24.1,25.2-43.9,25.2c-16,0-28.9-5.8-38.5-17.5s-14.4-27.5-14.4-47.6
		c0-21.5,5.3-38.8,16-51.8c10.6-13,24.8-19.5,42.6-19.5c17.6,0,30.3,7,38.3,21.1h0.5v-80.7h29.5L728.6,345.3L728.6,345.3z
		 M699.4,285.7v-17.1c0-9.2-3-17.1-9-23.5s-13.7-9.7-23-9.7c-11,0-19.7,4.1-26,12.3s-9.5,19.6-9.5,34.2c0,13.2,3,23.7,9.1,31.4
		c6.1,7.7,14.2,11.5,24.5,11.5c10.1,0,18.3-3.7,24.6-11.1C696.3,306.4,699.4,297,699.4,285.7z"/>
	<path class="st0" d="M877.5,288.1h-88.8c0.3,12,4.1,21.3,11.1,27.9c7.1,6.5,16.8,9.8,29.2,9.8c13.9,0,26.7-4.2,38.3-12.5v23.8
		c-11.9,7.5-27.6,11.2-47.1,11.2c-19.2,0-34.2-5.9-45.1-17.8c-10.9-11.8-16.4-28.5-16.4-49.9c0-20.3,6-36.8,18-49.6
		s26.9-19.2,44.7-19.2s31.6,5.7,41.4,17.2c9.8,11.5,14.6,27.4,14.6,47.7L877.5,288.1L877.5,288.1z M849,267.3
		c-0.1-10.6-2.6-18.9-7.5-24.7s-11.7-8.8-20.4-8.8c-8.5,0-15.7,3.1-21.6,9.3c-5.9,6.2-9.5,14.3-10.9,24.3H849V267.3z"/>
	<path class="st0" d="M1107.8,337.6c-13.7,7.1-30.8,10.7-51.3,10.7c-26.5,0-47.7-8.4-63.6-25.1C977,306.5,969,284.6,969,257.4
		c0-29.2,9-52.8,26.9-70.8s40.6-27,68-27c17.6,0,32.3,2.5,43.9,7.5v30c-12.3-7.3-25.9-10.9-40.7-10.9c-19.8,0-35.8,6.3-48,19
		c-12.3,12.6-18.4,29.5-18.4,50.6c0,20.1,5.7,36.1,17.2,48c11.5,11.9,26.5,17.9,45.2,17.9c17.2,0,32.2-4.1,44.8-12.2v28.1H1107.8z"
		/>
	<path class="st0" d="M1214.7,243.1c-3.6-2.8-8.7-4.2-15.4-4.2c-8.7,0-16,3.9-21.9,11.8c-5.9,7.9-8.8,18.6-8.8,32.2v62.4h-29.5V215
		h29.5v26.8h0.5c2.9-9.2,7.3-16.3,13.3-21.4c6-5.1,12.7-7.7,20-7.7c5.3,0,9.4,0.8,12.2,2.4v28H1214.7z"/>
	<path class="st0" d="M1343.6,288.1h-88.8c0.3,12,4.1,21.3,11.1,27.9c7.1,6.5,16.8,9.8,29.2,9.8c13.9,0,26.7-4.2,38.3-12.5v23.8
		c-11.9,7.5-27.6,11.2-47.1,11.2c-19.2,0-34.2-5.9-45.1-17.8c-10.9-11.8-16.4-28.5-16.4-49.9c0-20.3,6-36.8,18-49.6
		s26.9-19.2,44.7-19.2c17.8,0,31.6,5.7,41.4,17.2s14.6,27.4,14.6,47.7v11.4H1343.6z M1315.1,267.3c-0.1-10.6-2.6-18.9-7.5-24.7
		c-4.9-5.9-11.7-8.8-20.4-8.8c-8.5,0-15.7,3.1-21.6,9.3s-9.5,14.3-10.9,24.3h60.4V267.3z"/>
	<path class="st0" d="M1471.7,345.3h-28.6v-20.4h-0.5c-9,15.6-22.2,23.4-39.6,23.4c-12.8,0-22.8-3.5-30.1-10.4
		c-7.2-6.9-10.9-16.2-10.9-27.6c0-24.6,14.2-38.9,42.5-43l38.7-5.5c0-18.6-8.8-27.9-26.5-27.9c-15.5,0-29.5,5.3-42,16v-25.8
		c13.7-8.1,29.6-12.2,47.6-12.2c32.9,0,49.4,16.2,49.4,48.6V345.3z M1443.2,281.3l-27.4,3.8c-8.5,1.1-14.9,3.2-19.1,6.2
		c-4.3,3-6.4,8.3-6.4,15.8c0,5.5,2,10,5.9,13.5s9.2,5.3,15.8,5.3c9,0,16.4-3.2,22.3-9.5s8.8-14.3,8.8-23.9L1443.2,281.3
		L1443.2,281.3z"/>
	<path class="st0" d="M1576.4,343.9c-5.8,2.9-13.4,4.3-22.8,4.3c-25.3,0-37.9-12.1-37.9-36.4v-73.7H1494V215h21.8v-30.2l29.5-8.4
		V215h31.2v23.2h-31.2v65.2c0,7.7,1.4,13.2,4.2,16.5c2.8,3.3,7.5,5,14,5c5,0,9.3-1.4,13-4.3L1576.4,343.9L1576.4,343.9z"/>
	<path class="st0" d="M1616.8,187.6c-4.8,0-9-1.6-12.4-4.7c-3.4-3.1-5.1-7.1-5.1-12s1.7-8.9,5.1-12.1c3.4-3.2,7.6-4.8,12.4-4.8
		c5,0,9.3,1.6,12.7,4.8s5.2,7.3,5.2,12.1c0,4.6-1.7,8.5-5.2,11.8S1621.8,187.6,1616.8,187.6z M1631.4,345.3h-29.5V215h29.5V345.3z"
		/>
	<path class="st0" d="M1782.2,215l-50.4,130.3h-31.9l-48-130.3h32.1l28.9,91.1c2.2,6.7,3.6,12.6,4.1,17.6h0.4
		c0.8-6.3,1.9-12,3.6-17.1l30.3-91.6L1782.2,215L1782.2,215z"/>
	<path class="st0" d="M1910.5,288.1h-88.8c0.3,12,4.1,21.3,11.1,27.9c7.1,6.5,16.8,9.8,29.2,9.8c13.9,0,26.7-4.2,38.3-12.5v23.8
		c-11.9,7.5-27.6,11.2-47.1,11.2c-19.2,0-34.2-5.9-45.1-17.8c-10.9-11.8-16.4-28.5-16.4-49.9c0-20.3,6-36.8,18-49.6
		s26.9-19.2,44.7-19.2c17.8,0,31.6,5.7,41.4,17.2s14.6,27.4,14.6,47.7v11.4H1910.5z M1882,267.3c-0.1-10.6-2.6-18.9-7.5-24.7
		c-4.9-5.9-11.7-8.8-20.4-8.8c-8.5,0-15.7,3.1-21.6,9.3s-9.5,14.3-10.9,24.3h60.4V267.3z"/>
</g>
</svg>
